<svg data-v-6805eed4="" version="1.0" xmlns="http://www.w3.org/2000/svg" xmlns:xlink="http://www.w3.org/1999/xlink" width="100px" height="100px" viewBox="0 0 340.000000 250.000000" preserveAspectRatio="xMidYMid meet" color-interpolation-filters="sRGB" style="margin: auto;"> <g data-v-6805eed4="" fill="#333" class="icon-text-wrapper icon-svg-group iconsvg" transform="translate(73.48500061037035,89.58200073242188)"><g class="iconsvg-imagesvg" transform="translate(0,2.9209251403808594)"><g><rect fill="#333" fill-opacity="0" stroke-width="2" x="0" y="0" width="60.00000000000001" height="64.99415052645263" class="image-rect"></rect> <svg x="0" y="0" width="60.00000000000001" height="64.99415052645263" filtersec="colorsb3879179417" class="image-svg-svg primary" style="overflow: visible;"><svg xmlns="http://www.w3.org/2000/svg" viewBox="0.00018491921946406364 -0.0012735838536173105 46.48240280151367 50.35114669799805"><defs><linearGradient id="a36991fb4-657c-4181-ae09-cff63fa267ff" y1="25.18" x2="46.48" y2="25.18" gradientUnits="userSpaceOnUse"><stop offset="0" stop-color="#fd9248"></stop><stop offset=".49" stop-color="#fa1768"></stop><stop offset=".99" stop-color="#f001ff"></stop></linearGradient></defs><path d="M25.59 1.13a12 12 0 0 1 13.17 2c2.33 2.27 4.63 4.58 6.91 6.9a2.58 2.58 0 0 1 .06 3.68c-3.8 3.83-7.61 7.63-11.42 11.44C38 29.08 42 32.82 45.77 36.7a2.55 2.55 0 0 1-.15 3.68C43.33 42.69 41 45 38.7 47.28a12 12 0 0 1-15.36.56c-2.11-1.8-3.92-3.91-6-5.76-1.56 1.56-3.11 3.14-4.68 4.69a2.6 2.6 0 0 1-3.35.41A30.65 30.65 0 0 1 1.74 15 30.05 30.05 0 0 1 9.07 3.43a2.4 2.4 0 0 1 3.44 0C14.16 5 15.76 6.7 17.39 8.32c2.71-2.41 4.87-5.57 8.2-7.19zm.63 5.62c-1.78 1.68-3.49 3.45-5.2 5.19l9.66 9.66c3.23-3.21 6.44-6.45 9.68-9.66-1.7-1.77-3.36-3.54-5.21-5.21a6.81 6.81 0 0 0-8.93.02zM10.82 9a26.21 26.21 0 0 0-5.4 12 25.51 25.51 0 0 0 5.48 20.4l3-3a21.58 21.58 0 0 1 0-26.38C12.89 11 11.88 9.94 10.82 9zm6.68 6.67a16.47 16.47 0 0 0 .06 19.09c3.18-3.16 6.33-6.35 9.51-9.5q-4.71-4.9-9.57-9.62zM21 38.43c1.74 1.75 3.44 3.54 5.24 5.23a6.76 6.76 0 0 0 8.82 0c1.8-1.7 3.5-3.49 5.26-5.24l-9.67-9.67C27.47 32 24.24 35.21 21 38.43z" fill="url(#a36991fb4-657c-4181-ae09-cff63fa267ff)"></path></svg></svg> <!----></g></g> <g transform="translate(67,0)"><g data-gra="path-name" fill-rule="" class="tp-name iconsvg-namesvg" transform="translate(0,0)"><g transform="scale(1)"><g><path d="M2.47 0L13.39 0 13.39-27.95 18.98 0 29.9 0 29.9-55.84 19.11-55.84 19.11-29.12 13.97-55.84 2.47-55.84ZM47.97 0.52C58.71 0.52 62.27-4.8 62.27-15.67L62.27-18.39 50.96-18.39 50.96-13.78C50.96-10.9 51.1-8.26 48.36-8.26 45.83-8.25 45.63-10.76 45.63-13.52L45.63-22.75 62.14-22.75C62.23-24.92 62.27-27.73 62.27-31.2L62.27-34.65C62.27-43.62 57.7-48.1 48.56-48.1 39.67-48.1 34.26-43.49 34.26-34.65L34.26-15.54C34.26-5.24 37.85 0.52 47.97 0.52ZM50.96-28.41L45.57-28.41 45.57-34.52C45.57-37.94 46.52-39.65 48.43-39.65 50.12-39.65 50.96-37.94 50.96-34.52ZM79.69 0.52C90.43 0.52 93.99-4.8 93.99-15.67L93.99-18.39 82.68-18.39 82.68-13.78C82.68-10.9 82.82-8.26 80.08-8.26 77.55-8.25 77.35-10.76 77.35-13.52L77.35-22.75 93.86-22.75C93.95-24.92 93.99-27.73 93.99-31.2L93.99-34.65C93.99-43.62 89.42-48.1 80.28-48.1 71.39-48.1 65.98-43.49 65.98-34.65L65.98-15.54C65.98-5.24 69.57 0.52 79.69 0.52ZM82.68-28.41L77.28-28.41 77.28-34.52C77.28-37.94 78.24-39.65 80.15-39.65 81.84-39.65 82.68-37.94 82.68-34.52ZM98.09 0L109.33 0 109.33-22.43 116.42 0 128.5 0 119.41-26.91 126.56-47.58 114.79-47.58 109.33-31.2 109.33-56.16 98.09-56.16Z" transform="translate(-2.4700000286102295, 56.15999984741211)"></path></g> <!----> <!----> <!----> <!----> <!----> <!----> <!----></g></g> <g data-gra="path-slogan" fill-rule="" class="tp-slogan iconsvg-slogansvg" fill="#333" transform="translate(34.42499923706055,62.68000030517578)"><!----> <!----> <g transform="scale(1, 1)"><g transform="scale(1)"><path d="M0.62-3.94C0.62-3.30 0.71-2.72 0.88-2.21C1.05-1.71 1.29-1.28 1.60-0.93C1.91-0.58 2.27-0.32 2.69-0.13C3.11 0.05 3.57 0.14 4.07 0.14C4.57 0.14 5.02 0.04 5.41-0.16C5.80-0.36 6.16-0.64 6.47-1.00L5.90-1.61C5.65-1.33 5.38-1.11 5.09-0.96C4.81-0.81 4.48-0.73 4.09-0.73C3.72-0.73 3.38-0.81 3.08-0.96C2.78-1.11 2.52-1.33 2.32-1.61C2.11-1.89 1.95-2.23 1.83-2.62C1.71-3.02 1.66-3.46 1.66-3.96C1.66-4.45 1.72-4.89 1.84-5.28C1.96-5.67 2.12-6.01 2.34-6.28C2.56-6.56 2.82-6.77 3.12-6.92C3.42-7.07 3.76-7.14 4.14-7.14C4.48-7.14 4.77-7.07 5.02-6.94C5.27-6.81 5.50-6.63 5.71-6.41L6.28-7.04C6.04-7.30 5.75-7.53 5.39-7.72C5.03-7.92 4.61-8.02 4.13-8.02C3.62-8.02 3.16-7.92 2.73-7.73C2.30-7.55 1.93-7.28 1.62-6.92C1.31-6.57 1.06-6.14 0.89-5.64C0.71-5.14 0.62-4.57 0.62-3.94ZM10.49 0.14C10.98 0.14 11.44 0.05 11.85-0.14C12.26-0.34 12.62-0.61 12.92-0.97C13.22-1.32 13.45-1.75 13.61-2.26C13.78-2.77 13.86-3.34 13.86-3.97C13.86-4.60 13.78-5.16 13.61-5.66C13.45-6.16 13.22-6.58 12.92-6.93C12.62-7.28 12.26-7.55 11.85-7.73C11.44-7.92 10.98-8.02 10.49-8.02C9.99-8.02 9.54-7.92 9.13-7.74C8.71-7.56 8.36-7.29 8.06-6.94C7.77-6.59 7.54-6.17 7.37-5.67C7.21-5.17 7.13-4.60 7.13-3.97C7.13-3.34 7.21-2.77 7.37-2.26C7.54-1.75 7.77-1.32 8.06-0.97C8.36-0.61 8.71-0.34 9.13-0.14C9.54 0.05 9.99 0.14 10.49 0.14ZM10.49-0.73C10.14-0.73 9.82-0.81 9.53-0.96C9.25-1.11 9.01-1.33 8.80-1.61C8.60-1.90 8.44-2.24 8.33-2.63C8.22-3.03 8.16-3.48 8.16-3.97C8.16-4.46 8.22-4.90 8.33-5.29C8.44-5.68 8.60-6.02 8.80-6.29C9.01-6.56 9.25-6.77 9.53-6.92C9.82-7.07 10.14-7.14 10.49-7.14C10.84-7.14 11.16-7.07 11.44-6.92C11.73-6.77 11.97-6.56 12.17-6.29C12.38-6.02 12.54-5.68 12.65-5.29C12.76-4.90 12.82-4.46 12.82-3.97C12.82-3.48 12.76-3.03 12.65-2.63C12.54-2.24 12.38-1.90 12.17-1.61C11.97-1.33 11.73-1.11 11.44-0.96C11.16-0.81 10.84-0.73 10.49-0.73ZM15.55-7.87L15.55 0L16.48 0L16.48-4.33C16.48-4.68 16.46-5.07 16.43-5.50C16.40-5.92 16.37-6.31 16.34-6.66L16.39-6.66L17.02-4.91L18.54-0.79L19.10-0.79L20.62-4.91L21.25-6.66L21.30-6.66C21.27-6.31 21.24-5.92 21.21-5.50C21.18-5.07 21.17-4.68 21.17-4.33L21.17 0L22.12 0L22.12-7.87L20.94-7.87L19.43-3.65L18.88-2.04L18.83-2.04L18.25-3.65L16.73-7.87ZM24.28-7.87L24.28 0L25.20 0L25.20-4.33C25.20-4.68 25.18-5.07 25.15-5.50C25.12-5.92 25.09-6.31 25.07-6.66L25.12-6.66L25.74-4.91L27.26-0.79L27.83-0.79L29.34-4.91L29.98-6.66L30.02-6.66C29.99-6.31 29.96-5.92 29.93-5.50C29.91-5.07 29.89-4.68 29.89-4.33L29.89 0L30.84 0L30.84-7.87L29.66-7.87L28.15-3.65L27.60-2.04L27.55-2.04L26.98-3.65L25.45-7.87ZM33-7.87L33 0L37.66 0L37.66-0.85L34.00-0.85L34.00-3.71L36.98-3.71L36.98-4.56L34.00-4.56L34.00-7.03L37.54-7.03L37.54-7.87ZM40.32-4.14L40.32-7.07L41.64-7.07C42.26-7.07 42.73-6.96 43.06-6.76C43.38-6.55 43.55-6.18 43.55-5.66C43.55-5.15 43.38-4.77 43.06-4.52C42.73-4.27 42.26-4.14 41.64-4.14ZM43.64 0L44.77 0L42.78-3.43C43.32-3.57 43.74-3.82 44.06-4.19C44.38-4.56 44.54-5.05 44.54-5.66C44.54-6.07 44.48-6.42 44.34-6.70C44.20-6.98 44.01-7.20 43.77-7.38C43.53-7.56 43.23-7.68 42.89-7.76C42.55-7.83 42.18-7.87 41.78-7.87L39.32-7.87L39.32 0L40.32 0L40.32-3.32L41.75-3.32ZM45.84-3.94C45.84-3.30 45.93-2.72 46.10-2.21C46.27-1.71 46.51-1.28 46.82-0.93C47.13-0.58 47.49-0.32 47.91-0.13C48.33 0.05 48.79 0.14 49.28 0.14C49.79 0.14 50.24 0.04 50.63-0.16C51.02-0.36 51.37-0.64 51.68-1.00L51.12-1.61C50.86-1.33 50.59-1.11 50.31-0.96C50.03-0.81 49.69-0.73 49.31-0.73C48.93-0.73 48.59-0.81 48.29-0.96C47.99-1.11 47.74-1.33 47.53-1.61C47.32-1.89 47.16-2.23 47.05-2.62C46.93-3.02 46.87-3.46 46.87-3.96C46.87-4.45 46.93-4.89 47.05-5.28C47.17-5.67 47.34-6.01 47.56-6.28C47.77-6.56 48.03-6.77 48.34-6.92C48.64-7.07 48.98-7.14 49.36-7.14C49.69-7.14 49.99-7.07 50.24-6.94C50.49-6.81 50.72-6.63 50.93-6.41L51.49-7.04C51.26-7.30 50.96-7.53 50.60-7.72C50.24-7.92 49.82-8.02 49.34-8.02C48.84-8.02 48.37-7.92 47.95-7.73C47.52-7.55 47.15-7.28 46.84-6.92C46.52-6.57 46.28-6.14 46.10-5.64C45.93-5.14 45.84-4.57 45.84-3.94ZM53.15-7.87L53.15 0L57.80 0L57.80-0.85L54.14-0.85L54.14-3.71L57.13-3.71L57.13-4.56L54.14-4.56L54.14-7.03L57.68-7.03L57.68-7.87Z" transform="translate(-0.624, 8.016)"></path></g></g></g></g></g><defs v-gra="od"></defs></svg>